<?xml version="1.0" encoding="utf-8"?>
<!-- Generator: Adobe Illustrator 16.0.0, SVG Export Plug-In . SVG Version: 6.00 Build 0)  -->
<!DOCTYPE svg PUBLIC "-//W3C//DTD SVG 1.1//EN" "http://www.w3.org/Graphics/SVG/1.1/DTD/svg11.dtd">
<svg version="1.1" id="Layer_1" xmlns="http://www.w3.org/2000/svg" xmlns:xlink="http://www.w3.org/1999/xlink" x="0px" y="0px"
	 width="31.543px" height="30px" viewBox="0 0 31.543 30" enable-background="new 0 0 31.543 30" xml:space="preserve">
<path fill="#2DAAE1" d="M15.771,6.275l2.384,4.83l0.646,1.309l1.445,0.209l5.33,0.775l-3.857,3.76l-1.045,1.018l0.246,1.441
	l0.91,5.309l-4.768-2.506l-1.292-0.682l-1.292,0.682l-4.768,2.506l0.91-5.312l0.246-1.438l-1.044-1.018l-3.855-3.761l5.328-0.773
	l1.445-0.211l0.646-1.306L15.771,6.275 M15.771,0l-4.874,9.877L0,11.461l7.885,7.684L6.023,30l9.747-5.125L25.518,30l-1.859-10.855
	l7.885-7.686L20.645,9.876L15.771,0L15.771,0z"/>
</svg>
